<mxfile host="app.diagrams.net" modified="2024-05-19T14:45:08.950Z" agent="Mozilla/5.0 (Windows NT 10.0; Win64; x64) AppleWebKit/537.36 (KHTML, like Gecko) Chrome/124.0.0.0 Safari/537.36" etag="agEMo4lEDsHKR-V4jnT3" version="24.4.4" type="github">
  <diagram name="第 1 页" id="VyrEUsdp5ABuQfCRzsKb">
    <mxGraphModel dx="1434" dy="780" grid="0" gridSize="10" guides="1" tooltips="1" connect="1" arrows="1" fold="1" page="1" pageScale="1" pageWidth="3300" pageHeight="4681" math="0" shadow="0">
      <root>
        <mxCell id="0" />
        <mxCell id="1" parent="0" />
        <mxCell id="SJhO3alF-eKqpS6ES4c7-2" value="输入手机号" style="rounded=0;whiteSpace=wrap;html=1;" vertex="1" parent="1">
          <mxGeometry x="867" y="2522" width="120" height="60" as="geometry" />
        </mxCell>
        <mxCell id="SJhO3alF-eKqpS6ES4c7-11" value="" style="endArrow=classic;html=1;rounded=0;exitX=0.5;exitY=1;exitDx=0;exitDy=0;" edge="1" parent="1" source="SJhO3alF-eKqpS6ES4c7-2">
          <mxGeometry width="50" height="50" relative="1" as="geometry">
            <mxPoint x="1084" y="2740" as="sourcePoint" />
            <mxPoint x="927" y="2611" as="targetPoint" />
          </mxGeometry>
        </mxCell>
        <mxCell id="SJhO3alF-eKqpS6ES4c7-13" value="是否在黑命单" style="rhombus;whiteSpace=wrap;html=1;" vertex="1" parent="1">
          <mxGeometry x="862" y="2609" width="126" height="80" as="geometry" />
        </mxCell>
        <mxCell id="SJhO3alF-eKqpS6ES4c7-14" value="" style="endArrow=classic;html=1;rounded=0;exitX=0.5;exitY=1;exitDx=0;exitDy=0;" edge="1" parent="1" source="SJhO3alF-eKqpS6ES4c7-13">
          <mxGeometry width="50" height="50" relative="1" as="geometry">
            <mxPoint x="1084" y="2740" as="sourcePoint" />
            <mxPoint x="925" y="2718" as="targetPoint" />
          </mxGeometry>
        </mxCell>
        <mxCell id="SJhO3alF-eKqpS6ES4c7-15" value="No" style="text;html=1;align=center;verticalAlign=middle;resizable=0;points=[];autosize=1;strokeColor=none;fillColor=none;" vertex="1" parent="1">
          <mxGeometry x="922" y="2687" width="33" height="26" as="geometry" />
        </mxCell>
        <mxCell id="SJhO3alF-eKqpS6ES4c7-17" value="手机号是否存在" style="rhombus;whiteSpace=wrap;html=1;" vertex="1" parent="1">
          <mxGeometry x="865" y="2720" width="115" height="80" as="geometry" />
        </mxCell>
        <mxCell id="SJhO3alF-eKqpS6ES4c7-18" value="" style="endArrow=classic;html=1;rounded=0;exitX=0.5;exitY=1;exitDx=0;exitDy=0;" edge="1" parent="1" source="SJhO3alF-eKqpS6ES4c7-17">
          <mxGeometry width="50" height="50" relative="1" as="geometry">
            <mxPoint x="1084" y="2840" as="sourcePoint" />
            <mxPoint x="923" y="2837" as="targetPoint" />
          </mxGeometry>
        </mxCell>
        <mxCell id="SJhO3alF-eKqpS6ES4c7-19" value="Yes" style="text;html=1;align=center;verticalAlign=middle;resizable=0;points=[];autosize=1;strokeColor=none;fillColor=none;" vertex="1" parent="1">
          <mxGeometry x="919" y="2803" width="38" height="26" as="geometry" />
        </mxCell>
        <mxCell id="SJhO3alF-eKqpS6ES4c7-20" value="发送验证码" style="rounded=0;whiteSpace=wrap;html=1;" vertex="1" parent="1">
          <mxGeometry x="867" y="2839" width="120" height="60" as="geometry" />
        </mxCell>
        <mxCell id="SJhO3alF-eKqpS6ES4c7-21" value="" style="endArrow=classic;html=1;rounded=0;exitX=0.5;exitY=1;exitDx=0;exitDy=0;" edge="1" parent="1" source="SJhO3alF-eKqpS6ES4c7-20">
          <mxGeometry width="50" height="50" relative="1" as="geometry">
            <mxPoint x="1084" y="2840" as="sourcePoint" />
            <mxPoint x="927" y="2928" as="targetPoint" />
          </mxGeometry>
        </mxCell>
        <mxCell id="SJhO3alF-eKqpS6ES4c7-22" value="结束" style="rounded=0;whiteSpace=wrap;html=1;" vertex="1" parent="1">
          <mxGeometry x="867" y="2932" width="120" height="60" as="geometry" />
        </mxCell>
        <mxCell id="SJhO3alF-eKqpS6ES4c7-29" value="" style="strokeWidth=2;html=1;shape=mxgraph.flowchart.annotation_1;align=left;pointerEvents=1;" vertex="1" parent="1">
          <mxGeometry x="711" y="2648" width="156" height="325" as="geometry" />
        </mxCell>
      </root>
    </mxGraphModel>
  </diagram>
</mxfile>
